<?xml version="1.0" standalone="no"?>
<!DOCTYPE svg PUBLIC "-//W3C//DTD SVG 20010904//EN"
 "http://www.w3.org/TR/2001/REC-SVG-20010904/DTD/svg10.dtd">
<svg version="1.0" xmlns="http://www.w3.org/2000/svg"
 width="900.000000pt" height="900.000000pt" viewBox="0 0 900.000000 900.000000"
 preserveAspectRatio="xMidYMid meet">

<g transform="translate(0.000000,900.000000) scale(0.100000,-0.100000)"
fill="#000000" stroke="none">
<path d="M2375 6748 c-36 -13 -82 -53 -101 -90 -22 -41 -21 -3605 1 -3647 22
-44 70 -78 125 -90 34 -7 268 -11 693 -11 610 0 645 -1 695 -19 64 -24 140
-71 173 -108 14 -16 110 -134 214 -263 104 -129 198 -243 210 -252 22 -19 99
-48 126 -48 10 0 43 9 74 21 58 22 72 37 374 415 104 130 157 178 239 217 l67
32 680 5 c721 5 711 5 763 53 55 51 52 -68 52 1872 0 1958 4 1820 -57 1876
-15 15 -43 31 -62 38 -54 18 -1047 15 -1226 -4 -299 -31 -523 -97 -771 -227
-62 -32 -120 -58 -129 -58 -10 0 -54 19 -99 42 -132 68 -218 108 -231 108 -4
0 -21 6 -38 14 -129 55 -373 108 -577 126 -155 13 -1155 12 -1195 -2z m2190
-995 c15 -32 47 -101 70 -153 24 -52 57 -126 75 -165 45 -97 74 -161 100 -220
24 -54 66 -146 83 -183 10 -22 31 -33 200 -111 37 -17 97 -45 135 -62 37 -17
109 -51 160 -75 51 -24 95 -44 97 -44 11 0 182 -85 198 -98 23 -21 21 -47 -5
-64 -13 -8 -93 -45 -178 -83 -85 -37 -206 -92 -268 -122 -62 -29 -115 -53
-117 -53 -2 0 -51 -22 -108 -50 -112 -53 -103 -44 -157 -165 -36 -82 -126
-278 -205 -450 -17 -38 -45 -99 -60 -135 -34 -77 -51 -100 -76 -100 -20 0 -42
39 -108 188 -45 101 -82 183 -121 267 -15 33 -38 83 -50 110 -12 28 -34 75
-47 105 -14 30 -34 74 -43 97 -11 24 -28 44 -41 48 -12 4 -59 25 -105 46 -46
22 -123 57 -170 79 -47 22 -87 40 -89 40 -2 0 -43 18 -92 41 -48 22 -133 61
-188 86 -176 81 -177 94 -15 168 47 21 128 58 180 82 52 24 104 48 115 53 11
5 65 30 120 55 55 26 116 54 135 62 123 54 130 58 146 93 32 68 72 156 114
250 41 90 64 141 129 283 16 34 41 91 57 127 39 91 53 110 79 110 18 0 29 -12
50 -57z"/>
</g>
</svg>
